PathFileType	4	(X/Y/Z)	SUBJ11_0_static_RCNL2025.trc
DataRate	CameraRate	NumFrames	NumMarkers	Units	OrigDataRate	OrigDataStartFrame	OrigNumFrames
100	100	7	25	mm	100	61	120
Frame#	Time	R_Shoulder			L_Shoulder			C7			J_Notch			R_Elbow			L_Elbow			R_Wrist			L_Wrist			R_Asis			L_Asis			Sacral			Thoracic			Sternum			R_Thigh_Lateral			R_Knee_Lateral			R_Shank_Lateral			R_Ankle_Lateral			R_Heel			R_Toe			L_Thigh_Lateral			L_Knee_Lateral			L_Shank_Lateral			L_Ankle_Lateral			L_Heel			L_Toe		
		X1	Y1	Z1	X2	Y2	Z2	X3	Y3	Z3	X4	Y4	Z4	X5	Y5	Z5	X6	Y6	Z6	X7	Y7	Z7	X8	Y8	Z8	X9	Y9	Z9	X10	Y10	Z10	X11	Y11	Z11	X12	Y12	Z12	X13	Y13	Z13	X14	Y14	Z14	X15	Y15	Z15	X16	Y16	Z16	X17	Y17	Z17	X18	Y18	Z18	X19	Y19	Z19	X20	Y20	Z20	X21	Y21	Z21	X22	Y22	Z22	X23	Y23	Z23	X24	Y24	Z24	X25	Y25	Z25
61	0.60000000	-333.940033	1317.280151	16.377375	-335.762543	1359.257202	-420.044800	-401.061646	1423.330322	-209.510895	-266.684570	1321.597290	-214.435074	-390.672516	1051.609009	125.180763	-337.615906	1076.619263	-545.073486	-324.750137	801.722046	141.960297	-264.811401	825.060699	-571.980225	-255.529343	905.186584	-106.077225	-275.008667	918.015320	-356.056671	-447.771667	947.500549	-206.961548	-469.010132	1204.363281	-208.353424	-218.605652	1167.241699	-228.431229	-318.036743	576.443359	-6.800456	-372.723236	460.834106	-83.501526	-389.036438	246.223190	-20.174688	-409.016449	64.067238	-82.221947	-451.069672	54.421177	-136.491455	-272.162140	43.498695	-96.999237	-368.477692	584.815247	-425.338745	-366.701355	478.089569	-373.720184	-412.331207	239.901123	-415.860596	-409.123657	64.069954	-361.274292	-452.962769	62.326073	-298.897369	-248.966202	64.398575	-348.875702
62	0.61000000	-333.903931	1317.308960	16.349028	-335.772949	1359.197144	-420.028564	-401.003906	1423.287842	-209.449677	-267.357574	1321.392578	-214.834671	-390.683746	1051.608643	125.188919	-337.695557	1076.684692	-545.184875	-324.663879	801.597137	141.621876	-264.841728	825.013519	-572.077454	-255.564255	905.116089	-105.990128	-275.032715	917.987427	-356.151825	-447.766968	947.501038	-206.959412	-469.020050	1204.360962	-208.350571	-218.650528	1167.162598	-228.396484	-317.799622	576.305298	-6.832336	-372.726776	460.626251	-83.540154	-389.196747	246.367142	-20.056433	-409.166748	64.235191	-82.108658	-451.049286	54.428089	-136.654160	-271.651306	42.630215	-97.207489	-368.642517	584.788513	-425.433044	-366.649719	478.097198	-373.695831	-412.322266	239.871658	-415.876129	-409.149323	64.095024	-361.274353	-452.945282	62.229660	-298.854584	-248.918915	64.372444	-348.851196
63	0.62000000	-333.775513	1317.231934	16.298094	-335.780731	1359.154541	-420.000244	-400.995880	1423.324951	-209.432053	-268.186920	1321.009888	-215.035431	-390.842163	1051.713501	125.316696	-337.835999	1076.661865	-545.378113	-324.666138	801.578033	141.570751	-264.728554	825.029846	-572.184845	-255.586273	905.138855	-105.974640	-275.241516	917.933716	-356.237457	-447.781158	947.441223	-206.935303	-469.011719	1204.363403	-208.355103	-218.686401	1167.191284	-228.424255	-317.569305	576.146667	-7.004877	-372.727661	460.613892	-83.469978	-389.232269	246.413498	-20.058693	-409.430878	64.441345	-81.895470	-451.048309	54.427948	-136.677643	-271.496765	42.499413	-97.315804	-368.489319	584.863037	-425.301819	-366.720825	478.154633	-373.831299	-412.337799	239.887253	-415.852600	-409.276611	64.667961	-362.008514	-452.934723	62.216347	-298.850952	-249.165924	64.378662	-348.755005
64	0.63000000	-333.717743	1317.305054	16.330709	-336.204071	1359.049561	-420.304413	-400.998657	1423.330811	-209.438065	-268.864777	1320.905762	-215.201797	-390.861176	1051.723145	125.312637	-337.896545	1076.682007	-545.456604	-324.661591	801.624481	141.587276	-264.813644	825.106964	-572.248291	-255.625168	905.074951	-106.058296	-275.489655	917.868347	-356.313141	-447.743683	947.553162	-206.939041	-469.010620	1204.363281	-208.355713	-218.699188	1167.202515	-228.435577	-317.419891	576.146240	-7.127274	-372.554626	460.719177	-83.470070	-389.083496	246.317017	-19.993927	-409.369415	64.415779	-81.981056	-451.076324	54.488625	-136.629883	-271.915527	43.279182	-97.117058	-368.411469	584.830872	-425.253204	-366.744568	478.173187	-373.684204	-412.318207	239.860245	-415.888977	-409.161316	64.119980	-361.369720	-453.001678	62.302670	-298.826233	-249.297806	64.336349	-348.810333
65	0.64000000	-333.685303	1317.222900	16.247450	-336.496490	1359.019775	-420.601624	-401.060577	1423.267090	-209.526917	-269.243378	1320.934814	-215.464890	-390.807159	1051.751709	125.400002	-338.044708	1076.683350	-545.513611	-324.704117	801.392212	141.886326	-264.761879	824.987488	-572.462067	-255.655746	905.244934	-106.011505	-275.297058	917.546448	-356.143494	-447.725220	947.548401	-206.967712	-469.010864	1204.363281	-208.355560	-218.594391	1167.131470	-228.502502	-317.454773	576.214355	-7.075999	-372.420410	460.804871	-83.510292	-389.042511	246.306458	-20.071169	-409.023163	63.990154	-82.174011	-451.055450	54.435089	-136.665436	-272.134979	43.535000	-97.016068	-368.352417	584.941284	-425.265472	-366.741882	478.173798	-373.828278	-412.313110	239.855743	-415.894257	-409.351288	64.680511	-362.170624	-452.864716	62.139542	-298.929108	-249.291245	64.399323	-348.875946
66	0.65000000	-333.735565	1317.156494	16.306150	-336.463409	1358.984985	-420.428101	-400.935181	1423.312866	-209.540039	-269.160339	1320.799316	-215.421783	-390.800964	1051.737305	125.368164	-338.094788	1076.700562	-545.532166	-324.825821	801.376740	141.992672	-264.827026	825.018768	-572.594666	-255.523712	905.136963	-105.939758	-275.324768	917.801331	-356.238831	-447.723480	947.544983	-206.970032	-469.010956	1204.363281	-208.355515	-218.579254	1167.111084	-228.511490	-317.463470	576.181458	-7.100780	-372.263672	460.811066	-83.481796	-389.003479	246.231308	-20.179346	-409.017670	64.075920	-82.161621	-450.969666	54.410793	-136.700790	-272.233337	43.618961	-96.960365	-368.282532	584.828857	-425.324799	-366.667084	478.068298	-373.817566	-412.324432	239.875778	-415.866638	-409.346741	64.782288	-362.310303	-452.932068	62.277134	-298.912140	-249.243683	64.419952	-348.878052
67	0.66000000	-333.819489	1317.098145	16.421301	-336.431580	1358.934326	-420.247803	-400.817413	1423.378540	-209.544495	-268.995819	1320.704346	-215.368423	-390.685577	1051.672119	125.434906	-338.157196	1076.726196	-545.647278	-324.832077	801.279022	142.082924	-264.815758	825.114319	-572.681519	-255.480469	905.227966	-105.950798	-275.412140	917.904358	-356.292023	-447.677917	947.543335	-206.871979	-469.010956	1204.363281	-208.355515	-218.617416	1167.058838	-228.482635	-317.501251	576.101379	-7.201988	-372.315521	460.862213	-83.423660	-389.226837	246.389206	-20.050024	-409.018738	63.943729	-82.134117	-451.063110	54.437141	-136.682846	-272.131256	43.439713	-97.003868	-368.247864	584.847351	-425.372345	-366.808289	478.111877	-373.714874	-412.361816	239.923431	-415.846405	-409.072754	64.085716	-361.372467	-452.872070	62.275928	-298.874115	-249.212646	64.419334	-348.868073
